<?xml version="1.0" encoding="utf-8"?>
<!-- Generator: Adobe Illustrator 25.0.0, SVG Export Plug-In . SVG Version: 6.00 Build 0)  -->
<svg version="1.1" id="Layer_1" xmlns="http://www.w3.org/2000/svg" xmlns:xlink="http://www.w3.org/1999/xlink" x="0px" y="0px"
	 viewBox="-279 1468.6 1408.7 792.4" enable-background="new -279 1468.6 1408.7 792.4" xml:space="preserve">
<g>
	<polygon fill="#11B4D2" points="-157.3,1965.6 793.3,1991.3 809.8,1962.2 	"/>
	<polygon fill="#01295F" points="252.6,1718.7 1055.1,1740.9 1065.6,1705.9 	"/>
	<polygon fill="#01295F" points="-137.4,1925.3 -109.1,1925.3 -84.1,1856.6 -83.6,1855.4 -34.7,1859.9 -20.2,1833.7 -76.7,1836.5 
		-76,1834.4 -62,1796 -10.1,1796 -2,1773.7 -82.2,1773.7 -105.5,1837.9 -214.9,1843.3 -111,1852.8 	"/>
	<path fill="#01295F" d="M-26.4,1925.3l21.4-38.4h33.1l-6.5,38.4H52l20.8-151.5H34.6l-91.3,151.5H-26.4z M31.7,1821.6
		c4-7.1,7.1-13.9,10.5-21c1.5-3.4,3.1-6.9,4.7-10.1h0.4c-0.8,3.2-1.6,6.7-2.7,10.1c-1.8,7.1-3.7,13.9-4.8,21l-8,43H7.6L31.7,1821.6z
		"/>
	<path fill="#01295F" d="M108.5,1928.9c27.7,0,52.1-15,62.6-43.6c4.8-13.1,5.1-22.2-1.2-31.7c-5.1-7.7-18.1-19-25.3-24.9
		c-6.8-5.7-12.5-10.1-8.3-21.6c3.7-10.3,11.2-14.2,20.7-14.2c15.6,0,11.9,13.3,6.8,26.9H191c5.2-15,19.1-49.7-26-49.7
		c-29.9,0-49.6,14.1-59,40c-2.9,8.1-3.3,16.4-1.2,23.2c6,15.2,21.4,23.4,31.9,35c5.4,5.1,7.3,11.1,4,20
		c-4.2,11.5-12.1,17.8-24.1,17.8c-13.9,0-14.5-10.7-8.5-25.5l3.2-8.9H83.2l-4,11.1C69.3,1909.9,74.5,1928.9,108.5,1928.9z"/>
	<polygon fill="#01295F" points="231,1925.3 278.1,1796 311,1796 319.1,1773.7 224.8,1773.7 216.7,1796 249.8,1796 202.7,1925.3 	
		"/>
	<polygon fill="#11B4D2" points="336.1,1773.7 281,1925.3 361.8,1925.3 369.9,1903.1 317.3,1903.1 364.4,1773.7 	"/>
	<polygon fill="#11B4D2" points="381.2,1925.3 460.8,1925.3 468.9,1903.1 417.6,1903.1 434.5,1856.4 481.8,1856.4 489.9,1834.1 
		442.6,1834.1 456.5,1796 507.9,1796 516,1773.7 436.3,1773.7 	"/>
	<path fill="#11B4D2" d="M569.4,1828.9l-1.9-55.2h-29.3L483,1925.3h28.3l10.4-28.5c4.4-12.1,9.3-27.3,14-42.4
		c4.8-15.4,9.2-30.7,12.7-43.2h0.4c-2,23.8-2.6,42.2-1.7,60.2l2.4,53.9H579l55.2-151.5h-28.3l-10.8,29.7
		c-4.9,13.5-9.6,28.1-14.1,42.6c-4.5,14.5-8.8,29.3-12.8,43h-0.4C569.8,1864.5,570.3,1846.5,569.4,1828.9z"/>
	<path fill="#11B4D2" d="M721.5,1773.7h-59l-55.2,151.5h52.3c7.1,0,14.9-0.4,22.5-4c28.2-13.5,40.7-48.1,51.6-78
		c9.1-25.1,13.4-41.8,10.8-52.3C741,1776.8,728.3,1773.7,721.5,1773.7z M703.7,1845.9c-16,43.8-22.4,57.2-47.7,57.2h-12.3l39-107.1
		h18.6C718.2,1796,716.7,1810.1,703.7,1845.9z"/>
	<polygon fill="#11B4D2" points="758.5,1925.3 813.6,1773.7 785.3,1773.7 730.2,1925.3 	"/>
	<path fill="#11B4D2" d="M851.5,1811.1h0.4c-2,23.8-2.6,42.2-1.7,60.2l2.4,53.9h29.5l55.2-151.5H909l-10.8,29.7
		c-4.9,13.5-9.6,28.1-14.1,42.6c-4.5,14.5-8.8,29.3-12.8,43h-0.4c2.1-24.6,2.6-42.6,1.7-60.2l-1.9-55.2h-29.3l-55.2,151.5h28.3
		l10.4-28.5c4.4-12.1,9.3-27.3,14-42.4C843.6,1839,848,1823.6,851.5,1811.1z"/>
	<path fill="#11B4D2" d="M1013,1770.1c-45.3,0-58.7,28.7-74,67.3l-7.9,21.6c-14.7,40.4-22.4,69.9,24.1,69.9
		c10.6-0.8,22.9-5.3,34.3-21h0.4l-6.3,17.4h21.2l29.6-81.4h-47.1l-8.1,22.2h19.6c-7.7,22.8-19.2,40-35.4,40
		c-19.4,0-13-20.4-8.4-32.9l15.3-42c4.3-11.7,12.1-38.2,34.3-38.2c18.9,0.8,15.5,12.9,10.3,28.3h28.3c2-6.1,4.5-12.3,5.3-18.4
		C1051.6,1776.6,1037.2,1770.3,1013,1770.1z"/>
	<polygon fill="#01295F" points="799,2022.1 810.3,2022.1 814.7,2010.1 803.4,2010.1 	"/>
	<path fill="#01295F" d="M847.7,2013.4c-8.2,0-5.3-9.2-3.2-14.9l6.9-19c1.9-5.3,5.5-17.2,14.9-17.2c5.9,0,2.5,8.2,1.4,12.6h11.8
		c0.7-1.7,1.2-3.5,1.6-5.2c3.4-11.7-0.5-17.5-11.1-17.7c-19.2,0-25.2,12.9-32,30.3l-3.5,9.8c-6.6,18.2-10.2,31.5,9.5,31.5
		c13.4,0,20.8-9.6,25.9-22.1c0.6-1.3,1.1-2.6,1.7-3.9h-12.1C857.6,2002.2,854.3,2013.4,847.7,2013.4z"/>
	<path fill="#01295F" d="M918.1,1952.1c-19.2,0-25.2,12.9-32,30.3l-3.5,9.8c-6.6,18.2-10.2,31.5,9.5,31.5
		c19.7,0,25.8-13.3,32.4-31.5l3.5-9.8C933.9,1965.1,937.3,1952.1,918.1,1952.1z M916.6,1980l-6.4,17.5c-2.4,6.6-5.9,15.9-14.4,15.9
		c-8.2,0-5.3-9.2-3.2-14.9l6.9-19c1.9-5.3,5.5-17.2,14.9-17.2C923.3,1962.4,918.6,1974.5,916.6,1980z"/>
	<path fill="#01295F" d="M967.6,1985.5c-2.5,4.5-4.6,9-7.6,15.8h-0.2c1.4-5.3,2.6-10.6,3.5-15.8l5.1-31.7h-19.1l-24.9,68.4h12
		l7.8-21.5c4.9-13.6,9.6-27.2,13.8-40.7h0.4l-10.1,62.2h7.3l35.5-62.2h0.2c-5.7,13.6-10.9,27.2-15.9,40.7l-7.8,21.5h12l24.9-68.4
		h-19L967.6,1985.5z"/>
</g>
</svg>
